<svg width="240" height="82" viewBox="0 0 240 82" fill="none" xmlns="http://www.w3.org/2000/svg">
<!-- <rect x="192" width="48" height="48" rx="4" fill="#05944F"/> -->
<!-- <path d="M211.348 20.7L212.297 14.4H207.36L205.297 19.8C205.234 19.992 205.2 20.1912 205.2 20.4C205.2 21.7248 206.58 22.8 208.285 22.8C209.857 22.8 211.157 21.8832 211.348 20.7ZM216 22.8C217.704 22.8 219.085 21.7248 219.085 20.4C219.085 20.3508 219.082 20.3016 219.079 20.2548L218.468 14.4H213.532L212.92 20.25C212.917 20.2992 212.915 20.3484 212.915 20.4C212.915 21.7248 214.296 22.8 216 22.8ZM222 24.0552V28.8H210V24.0624C209.474 24.252 208.896 24.36 208.285 24.36C208.051 24.36 207.824 24.3324 207.6 24.3012V31.92C207.6 32.844 208.355 33.6 209.278 33.6H222.72C223.644 33.6 224.4 32.8428 224.4 31.92V24.3024C224.173 24.3372 223.944 24.3569 223.715 24.3612C223.13 24.3606 222.549 24.257 222 24.0552ZM226.704 19.8L224.639 14.4H219.703L220.651 20.6904C220.836 21.8784 222.136 22.8 223.715 22.8C225.419 22.8 226.8 21.7248 226.8 20.4C226.8 20.1912 226.766 19.992 226.704 19.8Z" fill="white"/> -->
<path d="M6.82109 64H7.75109V61.09H8.96109C10.5711 61.09 11.6611 60.37 11.6611 58.82C11.6611 57.22 10.5611 56.66 8.92109 56.66H6.82109V64ZM7.75109 60.34V57.42H8.80109C10.0911 57.42 10.7411 57.76 10.7411 58.82C10.7411 59.87 10.1311 60.34 8.84109 60.34H7.75109ZM14.996 64.13C16.326 64.13 17.516 63.09 17.516 61.29C17.516 59.48 16.326 58.43 14.996 58.43C13.666 58.43 12.476 59.48 12.476 61.29C12.476 63.09 13.666 64.13 14.996 64.13ZM14.996 63.37C14.056 63.37 13.426 62.54 13.426 61.29C13.426 60.04 14.056 59.19 14.996 59.19C15.936 59.19 16.576 60.04 16.576 61.29C16.576 62.54 15.936 63.37 14.996 63.37ZM19.0505 66.29H19.9605V64.45L19.9405 63.5C20.4305 63.9 20.9505 64.13 21.4405 64.13C22.6905 64.13 23.8005 63.06 23.8005 61.2C23.8005 59.53 23.0405 58.43 21.6405 58.43C21.0105 58.43 20.4005 58.79 19.9105 59.19H19.8805L19.8005 58.57H19.0505V66.29ZM21.2905 63.37C20.9305 63.37 20.4505 63.22 19.9605 62.8V59.95C20.4905 59.46 20.9605 59.2 21.4205 59.2C22.4505 59.2 22.8505 60.01 22.8505 61.21C22.8505 62.56 22.1905 63.37 21.2905 63.37ZM26.9316 64.13C27.6816 64.13 28.2216 63.74 28.7316 63.15H28.7616L28.8316 64H29.5916V58.57H28.6816V62.42C28.1616 63.07 27.7716 63.34 27.2116 63.34C26.4916 63.34 26.1916 62.91 26.1916 61.9V58.57H25.2816V62.01C25.2816 63.39 25.7916 64.13 26.9316 64.13ZM32.4859 64.13C32.7359 64.13 32.8859 64.1 33.0159 64.05L32.8859 63.35C32.7859 63.37 32.7459 63.37 32.6959 63.37C32.5559 63.37 32.4359 63.26 32.4359 62.98V56.04H31.5259V62.92C31.5259 63.69 31.8059 64.13 32.4859 64.13ZM35.7274 64.13C36.3974 64.13 37.0074 63.78 37.5274 63.35H37.5574L37.6374 64H38.3874V60.66C38.3874 59.32 37.8274 58.43 36.5074 58.43C35.6374 58.43 34.8674 58.82 34.3674 59.14L34.7274 59.77C35.1574 59.48 35.7274 59.19 36.3574 59.19C37.2474 59.19 37.4774 59.86 37.4774 60.56C35.1674 60.82 34.1374 61.41 34.1374 62.59C34.1374 63.57 34.8174 64.13 35.7274 64.13ZM35.9874 63.4C35.4474 63.4 35.0274 63.15 35.0274 62.53C35.0274 61.83 35.6474 61.38 37.4774 61.16V62.68C36.9474 63.15 36.5174 63.4 35.9874 63.4ZM40.222 64H41.132V60.51C41.492 59.58 42.052 59.26 42.502 59.26C42.722 59.26 42.852 59.28 43.032 59.35L43.202 58.55C43.032 58.46 42.862 58.43 42.622 58.43C42.012 58.43 41.462 58.87 41.082 59.56H41.052L40.972 58.57H40.222V64ZM4.27598 79H5.20598V76.09H6.41598C8.02598 76.09 9.11598 75.37 9.11598 73.82C9.11598 72.22 8.01598 71.66 6.37598 71.66H4.27598V79ZM5.20598 75.34V72.42H6.25598C7.54598 72.42 8.19598 72.76 8.19598 73.82C8.19598 74.87 7.58598 75.34 6.29598 75.34H5.20598ZM10.6143 79H11.5243V75.51C11.8843 74.58 12.4443 74.26 12.8943 74.26C13.1143 74.26 13.2443 74.28 13.4243 74.35L13.5943 73.55C13.4243 73.46 13.2543 73.43 13.0143 73.43C12.4043 73.43 11.8543 73.87 11.4743 74.56H11.4443L11.3643 73.57H10.6143V79ZM16.5939 79.13C17.9239 79.13 19.1139 78.09 19.1139 76.29C19.1139 74.48 17.9239 73.43 16.5939 73.43C15.2639 73.43 14.0739 74.48 14.0739 76.29C14.0739 78.09 15.2639 79.13 16.5939 79.13ZM16.5939 78.37C15.6539 78.37 15.0239 77.54 15.0239 76.29C15.0239 75.04 15.6539 74.19 16.5939 74.19C17.5339 74.19 18.1739 75.04 18.1739 76.29C18.1739 77.54 17.5339 78.37 16.5939 78.37ZM22.4983 79.13C23.1483 79.13 23.7183 78.78 24.1483 78.36H24.1783L24.2583 79H24.9983V71.04H24.0983V73.13L24.1383 74.07C23.6583 73.67 23.2483 73.43 22.6083 73.43C21.3683 73.43 20.2583 74.53 20.2583 76.29C20.2583 78.1 21.1383 79.13 22.4983 79.13ZM22.6983 78.37C21.7383 78.37 21.1983 77.59 21.1983 76.28C21.1983 75.04 21.8883 74.2 22.7683 74.2C23.2183 74.2 23.6283 74.36 24.0983 74.77V77.62C23.6383 78.12 23.1983 78.37 22.6983 78.37ZM28.5295 79.13C29.2795 79.13 29.8195 78.74 30.3295 78.15H30.3595L30.4295 79H31.1895V73.57H30.2795V77.42C29.7595 78.07 29.3695 78.34 28.8095 78.34C28.0895 78.34 27.7895 77.91 27.7895 76.9V73.57H26.8795V77.01C26.8795 78.39 27.3895 79.13 28.5295 79.13ZM35.2637 79.13C35.9137 79.13 36.5337 78.88 37.0237 78.44L36.6237 77.83C36.2837 78.14 35.8437 78.37 35.3437 78.37C34.3437 78.37 33.6637 77.54 33.6637 76.29C33.6637 75.04 34.3837 74.19 35.3737 74.19C35.8037 74.19 36.1337 74.39 36.4537 74.67L36.9237 74.07C36.5337 73.73 36.0437 73.43 35.3337 73.43C33.9437 73.43 32.7137 74.48 32.7137 76.29C32.7137 78.09 33.8237 79.13 35.2637 79.13ZM39.9142 79.13C40.2442 79.13 40.6042 79.03 40.9142 78.93L40.7342 78.25C40.5542 78.32 40.3042 78.39 40.1142 78.39C39.4842 78.39 39.2742 78.01 39.2742 77.34V74.31H40.7442V73.57H39.2742V72.04H38.5142L38.4042 73.57L37.5542 73.62V74.31H38.3642V77.32C38.3642 78.4 38.7542 79.13 39.9142 79.13ZM43.3863 79.13C44.6663 79.13 45.3663 78.4 45.3663 77.52C45.3663 76.49 44.4963 76.17 43.7063 75.87C43.0963 75.64 42.5363 75.45 42.5363 74.93C42.5363 74.51 42.8563 74.15 43.5463 74.15C44.0263 74.15 44.4063 74.35 44.7763 74.63L45.2163 74.04C44.7963 73.71 44.2063 73.43 43.5363 73.43C42.3563 73.43 41.6563 74.11 41.6563 74.97C41.6563 75.89 42.4863 76.26 43.2463 76.54C43.8463 76.77 44.4863 77.01 44.4863 77.57C44.4863 78.04 44.1363 78.42 43.4163 78.42C42.7663 78.42 42.2763 78.16 41.8063 77.78L41.3563 78.38C41.8763 78.81 42.6163 79.13 43.3863 79.13Z" fill="#29394F"/>
<rect width="48" height="48" rx="4" fill="#EE6F44"/>
<path d="M18.6239 33.8312C17.5223 32.5794 16.4207 31.2776 15.7197 29.7253C15.0187 28.073 14.8184 26.1703 15.1689 24.3677C15.5195 22.5651 16.3206 20.8627 17.4722 19.4106C17.3721 20.6624 17.8228 21.9642 18.674 22.9156C18.1732 20.5122 18.9744 17.9085 20.5767 16.0058C22.1789 14.1031 24.3821 12.8512 26.6854 12C25.5337 13.2017 25.3835 15.1044 25.8342 16.7067C26.2848 18.309 27.2362 19.711 28.0874 21.1631C28.9386 22.6151 29.7398 24.1173 29.7898 25.7697C30.2405 24.9185 30.7412 24.0672 31.0416 23.1159C31.3421 22.1645 31.4923 21.1631 31.2419 20.2117C32.1432 21.3133 32.644 22.4148 32.8943 23.8169C33.1447 25.2189 33.0946 26.6709 32.9444 28.073C32.7441 29.6252 32.3435 31.2275 31.4923 32.5293C30.4909 34.0815 28.8886 35.1831 27.1361 35.7839C24.0316 36.3348 20.9772 35.8841 18.6239 33.8312Z" fill="white"/>
<path d="M22.4293 35.6838C26.5352 37.2861 30.591 32.4292 28.3377 28.6738C28.3377 28.6237 28.2876 28.6237 28.2876 28.5737C28.4879 30.6266 27.9872 32.1288 27.0358 32.98C27.5366 31.7783 27.1861 30.3763 26.5852 29.1746C25.9843 28.0229 25.1331 26.9714 24.4822 25.8698C23.8312 24.7182 23.3306 23.4163 23.631 22.1145C22.4293 23.0158 21.5781 24.3677 21.2276 25.8197C20.877 27.2718 21.0773 28.8741 21.7283 30.2261C20.9772 29.6753 20.4264 28.774 20.3764 27.8226C19.5752 28.774 19.0745 30.0258 19.1246 31.2776C19.1246 33.2303 20.6768 34.9828 22.4293 35.6838Z" fill="#F7BAA6"/>
</svg>
