<svg width="24" height="24" viewBox="0 0 24 24" fill="none" xmlns="http://www.w3.org/2000/svg">
<circle cx="12" cy="12" r="12" fill="#EDF2F7"/>
<path d="M7.41333 7.33333H16.58L15.9533 6.66667H7.95333L7.41333 7.33333ZM17.6933 7.48667C17.8867 7.71333 18 8 18 8.33333V16.6667C18 17.0203 17.8595 17.3594 17.6095 17.6095C17.3594 17.8595 17.0203 18 16.6667 18H7.33333C6.97971 18 6.64057 17.8595 6.39052 17.6095C6.14048 17.3594 6 17.0203 6 16.6667V8.33333C6 8 6.11333 7.71333 6.30667 7.48667L7.22667 6.36667C7.41333 6.14 7.68667 6 8 6H16C16.3133 6 16.5867 6.14 16.7667 6.36667L17.6933 7.48667ZM8 16H12V14H8V16Z" fill="#7E42F5"/>
</svg>
