<svg width="11.2" height="12.8" viewBox="0 0 24 24" fill="none" xmlns="http://www.w3.org/2000/svg">
<circle cx="12" cy="12" r="12" fill="#EDF2F7"/>
<path d="M15.96 15.164C17.0103 14.1131 17.6003 12.6882 17.6003 11.2024C17.6003 9.71663 17.0103 8.29167 15.96 7.2408C15.4401 6.72054 14.8228 6.30783 14.1433 6.02625C13.4638 5.74466 12.7355 5.59973 12 5.59973C11.2645 5.59973 10.5362 5.74466 9.8567 6.02625C9.17723 6.30783 8.5599 6.72054 8.03999 7.2408C6.98966 8.29167 6.39964 9.71663 6.39964 11.2024C6.39964 12.6882 6.98966 14.1131 8.03999 15.164L9.25679 16.3632L10.8912 17.9512L10.9976 18.0456C11.6176 18.548 12.5256 18.516 13.1096 17.9512L15.0576 16.0552L15.96 15.164ZM12 13.6C11.3635 13.6 10.753 13.3471 10.3029 12.8971C9.85285 12.447 9.59999 11.8365 9.59999 11.2C9.59999 10.5635 9.85285 9.95303 10.3029 9.50294C10.753 9.05286 11.3635 8.8 12 8.8C12.6365 8.8 13.247 9.05286 13.697 9.50294C14.1471 9.95303 14.4 10.5635 14.4 11.2C14.4 11.8365 14.1471 12.447 13.697 12.8971C13.247 13.3471 12.6365 13.6 12 13.6Z" fill="#227EFF"/>
</svg>
