<svg width="24" height="24" viewBox="0 0 24 24" fill="none" xmlns="http://www.w3.org/2000/svg">
<circle cx="12" cy="12" r="12" fill="#EDF2F7"/>
<path d="M8.95086 16.6052C9.50376 16.6052 9.95675 17.0678 9.95675 17.6393C9.95675 18.204 9.50376 18.6666 8.95086 18.6666C8.3913 18.6666 7.93832 18.204 7.93832 17.6393C7.93832 17.0678 8.3913 16.6052 8.95086 16.6052ZM16.445 16.6052C16.9979 16.6052 17.4509 17.0678 17.4509 17.6393C17.4509 18.204 16.9979 18.6666 16.445 18.6666C15.8855 18.6666 15.4325 18.204 15.4325 17.6393C15.4325 17.0678 15.8855 16.6052 16.445 16.6052ZM5.85214 5.33339L5.92002 5.33914L7.50879 5.58338C7.73528 5.62488 7.90181 5.8147 7.9218 6.04601L8.04837 7.56997C8.06835 7.78836 8.24155 7.95164 8.45472 7.95164H17.451C17.8574 7.95164 18.1238 8.09451 18.3903 8.40747C18.6568 8.72043 18.7034 9.16945 18.6434 9.57697L18.0106 14.04C17.8907 14.8979 17.1713 15.5299 16.3252 15.5299H9.05758C8.1716 15.5299 7.43884 14.8367 7.36556 13.9386L6.75271 6.52225L5.74683 6.34536C5.48037 6.29774 5.29385 6.0324 5.34048 5.76027C5.38711 5.48201 5.6469 5.29764 5.92002 5.33914L5.85214 5.33339ZM15.2594 10.4682H13.4142C13.1344 10.4682 12.9146 10.6927 12.9146 10.9785C12.9146 11.2574 13.1344 11.4887 13.4142 11.4887H15.2594C15.5392 11.4887 15.759 11.2574 15.759 10.9785C15.759 10.6927 15.5392 10.4682 15.2594 10.4682Z" fill="#2E4457"/>
</svg>
